# xmcd
# 
# Track frame offsets:
#     150
#     12541
#     32462
#     50644
#     72757
#     92127
#     107346
#     128518
#     148603
#     173673
#     193810
#     224873
# 
# Disc length: 3248
# 
# Revision: 1
# Processed by: cddbd v1.5.2PL0 Copyright (c) Steve Scherf et al.
# Submitted via: fre:ac v1.0.31
# 
DISCID=aa0cae0c
DTITLE=Samantha Fish - Black Wind Howlin'
DYEAR=2013
DGENRE=Blues
TTITLE0=Miles To Go
TTITLE1=Kick Around
TTITLE2=Go To Hell
TTITLE3=Sucker Born
TTITLE4=Over You
TTITLE5=Who's Been Talking
TTITLE6=Lay It Down
TTITLE7=Let's Have Some Fun
TTITLE8=Heartbreaker
TTITLE9=Foolin' Me
TTITLE10=Black Wind Howlin'
TTITLE11=Last September
EXTD=
EXTT0=
EXTT1=
EXTT2=
EXTT3=
EXTT4=
EXTT5=
EXTT6=
EXTT7=
EXTT8=
EXTT9=
EXTT10=
EXTT11=
PLAYORDER=
